PathFileType	4	(X/Y/Z)	TVC_36_BWA_04_walk_RCNL2025.trc
DataRate	CameraRate	NumFrames	NumMarkers	Units	OrigDataRate	OrigDataStartFrame	OrigNumFrames
100	100	13	27	mm	100	348	695
Frame#	Time	R_Shoulder			L_Shoulder			C7			J_Notch			R_Elbow			L_Elbow			R_Wrist			L_Wrist			R_Asis			L_Asis			R_Psis			L_Psis			Sacral			Thoracic			Sternum			R_Thigh_Lateral			R_Knee_Lateral			R_Shank_Lateral			R_Ankle_Lateral			R_Heel			R_Toe			L_Thigh_Lateral			L_Knee_Lateral			L_Shank_Lateral			L_Ankle_Lateral			L_Heel			L_Toe		
		X1	Y1	Z1	X2	Y2	Z2	X3	Y3	Z3	X4	Y4	Z4	X5	Y5	Z5	X6	Y6	Z6	X7	Y7	Z7	X8	Y8	Z8	X9	Y9	Z9	X10	Y10	Z10	X11	Y11	Z11	X12	Y12	Z12	X13	Y13	Z13	X14	Y14	Z14	X15	Y15	Z15	X16	Y16	Z16	X17	Y17	Z17	X18	Y18	Z18	X19	Y19	Z19	X20	Y20	Z20	X21	Y21	Z21	X22	Y22	Z22	X23	Y23	Z23	X24	Y24	Z24	X25	Y25	Z25	X26	Y26	Z26	X27	Y27	Z27
348	3.47000000	735.000610	1399.665161	324.783539	721.464294	1380.112061	-29.035042	691.787415	1444.844238	152.341583	836.233582	1312.349365	158.917145	622.855591	1128.199585	412.896820	722.053284	1086.886230	-140.294434	680.571564	911.216187	433.228516	875.297607	969.914337	-39.289392	759.825073	898.024292	280.232422	753.915344	902.483826	21.505091	590.241638	940.957947	205.745712	587.395142	940.914368	122.190933	588.818390	940.936157	163.968323	626.910156	1158.579956	154.729218	869.399109	1159.588623	144.235992	758.127747	644.316040	373.187531	843.400330	484.063171	297.628693	835.703064	285.161682	354.437225	890.779541	91.186508	296.668335	853.224304	74.016205	242.195175	1021.599426	66.339821	272.970398	695.549988	661.387573	-55.324005	660.294312	470.215057	21.060568	599.796143	274.613007	-24.560608	618.751465	67.481949	51.921467	567.818481	53.514271	87.640198	738.775452	47.900192	111.965836
349	3.48000000	739.594971	1399.111084	325.977173	726.805908	1380.634888	-28.011139	696.652039	1444.966431	153.780121	841.053528	1312.092407	159.988602	628.587891	1128.458984	413.946930	728.904114	1087.400146	-139.566177	683.663849	910.307098	433.778015	882.511475	971.962158	-37.351383	766.020447	897.650024	280.993622	759.358154	902.216614	22.270151	596.160400	940.333496	206.533356	593.041626	940.357788	123.081703	594.601013	940.345642	164.807529	631.745911	1158.607910	155.943115	874.033691	1159.564575	144.873505	757.970581	640.728088	373.401703	844.588135	482.215851	295.847046	840.074219	283.254852	351.852081	904.952942	92.301620	295.918304	868.748230	74.659622	240.778885	1037.117432	66.002258	273.752869	700.916199	661.377930	-54.323231	663.654236	470.385406	21.488808	601.312500	275.170197	-24.045979	618.757385	67.788559	52.168865	567.850342	54.114521	87.971443	738.791382	47.856266	112.058563
350	3.49000000	744.208740	1398.447754	327.296814	731.840881	1380.897949	-26.759083	701.708252	1444.699097	155.010468	845.625366	1311.736816	161.084229	633.969238	1127.912231	414.792053	735.838196	1087.521240	-138.836411	686.469360	909.383026	434.440659	889.479614	973.770111	-35.000038	772.470581	897.075989	281.748383	764.692871	902.089966	22.948242	602.148621	939.589111	207.498215	598.663574	939.838623	124.029327	600.406097	939.713867	165.763771	636.501099	1158.341797	157.200867	878.624207	1159.476318	145.702621	757.309387	637.866150	373.354279	846.255005	480.324768	294.192841	844.245300	281.309082	349.056946	916.332764	92.898636	294.310211	881.299377	75.572144	238.487305	1049.134521	64.651733	274.020691	705.874695	661.420532	-53.402531	666.936890	470.561920	21.931847	602.683533	275.722168	-23.612114	618.780334	68.003708	52.455204	567.924255	54.781750	88.266953	738.884338	47.886688	112.080292
351	3.50000000	748.456177	1397.398804	328.607849	736.765503	1380.981689	-25.450850	706.074219	1444.073364	156.576904	850.231506	1311.520386	162.501434	638.575378	1127.254395	415.505646	742.970581	1087.670532	-137.883820	689.380798	908.410126	434.723862	896.600647	975.304474	-32.607294	778.538574	896.477783	282.034515	769.909668	902.093018	23.548996	608.047974	938.702637	208.556137	604.200195	939.404968	125.388702	606.124084	939.053802	166.972420	641.292969	1156.992310	158.283340	883.424683	1159.270874	146.514114	756.684692	636.197937	374.575348	847.948608	478.256226	292.712341	848.243713	279.390259	346.264038	924.493713	93.025581	292.384155	889.930420	76.602768	235.462677	1057.719849	61.952888	273.518280	710.239990	661.413147	-52.870274	670.162170	470.706696	22.405405	603.961365	276.244751	-23.022255	618.787109	68.314095	52.743034	567.979004	55.309437	88.800095	738.914612	47.701191	111.957695
352	3.51000000	753.096558	1396.689087	330.160370	741.469971	1380.950317	-23.852406	710.715332	1444.039307	158.556747	854.914673	1311.008545	163.989502	642.433594	1126.376099	416.074951	750.537781	1087.718262	-136.521851	692.573761	907.283234	435.194199	903.877747	976.472168	-29.937520	785.139160	895.372986	282.959106	774.972290	902.103821	24.000599	614.112549	937.442078	210.242752	609.895081	938.263306	126.705215	612.003815	937.852692	168.473984	646.232422	1156.713257	160.123016	888.129822	1158.967285	147.555298	758.534790	634.364990	374.463898	849.948425	476.080475	291.403809	851.410828	277.235657	344.077637	928.913269	91.830597	289.615234	895.027710	76.542122	232.000366	1062.353027	57.747578	272.428986	714.936523	661.384827	-52.316250	673.664551	470.852020	22.588943	605.307129	276.876740	-22.476507	618.831421	68.487335	53.054897	568.080017	55.866299	89.368095	738.952148	47.660107	111.921471
353	3.52000000	757.685120	1396.096558	331.702972	746.065857	1380.646362	-22.239433	715.442383	1443.228394	160.413666	859.719604	1310.699951	165.490997	645.813354	1125.325806	416.644440	758.171326	1087.831543	-135.474899	695.761383	906.149841	435.504471	911.041321	977.331024	-27.303385	791.151123	894.195190	283.243103	779.912476	902.182861	24.393791	620.110657	936.308960	211.731888	615.369019	937.389099	128.065384	617.739838	936.849030	169.898636	651.165527	1156.177124	162.002518	892.887878	1158.657837	148.660400	759.830566	631.714661	373.149994	853.027344	474.470306	290.569458	853.497253	274.621735	341.928680	929.225769	89.028694	286.410645	896.257263	75.548508	228.607056	1062.889648	52.258236	270.260376	719.477783	661.205872	-52.003254	677.093811	470.952515	22.798004	606.634460	277.500641	-21.981798	618.938416	68.700920	53.250671	568.213745	56.558941	90.035561	738.937439	47.792557	112.009659
354	3.53000000	762.204285	1395.080444	333.483032	750.629395	1380.347168	-20.470469	720.261536	1443.085815	162.486420	864.389343	1310.094482	167.111023	649.485229	1124.360107	417.084656	766.018921	1087.805420	-134.180145	699.547821	905.026855	436.046112	918.224365	977.944580	-24.582828	797.246704	893.110413	283.713409	784.695496	902.285339	24.751947	626.075256	935.120972	213.142090	620.707703	936.362427	129.660660	623.391479	935.741699	171.401375	656.216736	1155.145386	163.960464	897.664001	1158.279663	149.692108	764.644165	628.763916	372.562805	857.440857	472.660828	289.992889	854.846313	272.309601	339.572449	927.254944	86.337990	283.243805	893.424500	73.078278	225.561874	1059.879395	46.436256	267.601593	723.312012	661.815613	-51.666721	680.582947	471.117126	22.671576	607.822510	278.224945	-21.862259	619.018677	68.885651	53.275421	568.334106	57.180195	90.158295	738.990051	47.744404	111.856384
355	3.54000000	766.962463	1394.274292	335.288086	755.271667	1379.949463	-18.578007	724.873840	1442.349487	164.373306	869.142151	1309.477295	168.855255	652.954285	1123.082397	417.858978	773.828491	1087.481567	-132.625580	703.021576	903.905151	436.325180	925.371490	978.139313	-21.828392	804.061157	892.069031	284.292999	789.221680	902.263550	25.078279	632.042114	934.028931	214.485489	626.124512	935.509338	131.129028	629.083313	934.769135	172.807259	661.227844	1154.534790	166.149460	902.533997	1157.733887	150.965881	769.995422	628.340515	371.104523	862.406067	470.963440	289.160583	854.942078	269.357483	337.459473	922.063843	82.395706	279.894257	887.480042	67.697357	223.400360	1055.425049	44.514854	262.656494	727.237122	662.583191	-51.402649	683.885498	471.314178	22.499008	609.256470	278.796234	-21.839470	619.131348	69.102928	53.149788	568.656006	57.705933	89.931946	739.200439	47.664776	111.425949
356	3.55000000	771.520996	1393.399536	337.075195	759.624207	1379.426025	-16.700916	729.686584	1442.086792	166.496933	873.882935	1309.032349	170.575226	656.561035	1121.858032	418.622955	781.500793	1087.271606	-130.908478	706.919098	902.682037	436.911499	932.337158	978.185608	-18.920810	810.910522	891.112854	284.837006	793.765015	902.310608	25.343203	637.967651	933.171326	216.061676	631.562683	934.762207	132.717178	634.765167	933.966766	174.389427	666.650757	1153.386719	168.261093	907.382507	1157.327271	152.416061	778.295715	627.009216	368.765442	867.946167	469.346619	287.901154	856.122681	267.548126	336.138275	915.781433	78.689865	277.193024	880.747681	62.128819	222.196426	1049.586182	44.274944	260.537201	730.351868	662.918823	-51.570732	687.099487	471.444092	22.163790	610.568726	279.311005	-21.967535	619.327209	69.199211	52.832775	568.856140	58.333233	89.535843	739.137634	47.824730	111.076981
357	3.56000000	776.281616	1392.735474	339.094055	764.071533	1378.927490	-14.624744	734.543091	1441.419312	168.681839	878.973755	1308.605957	172.453720	660.582703	1120.646118	419.697693	789.251587	1086.976318	-128.859299	710.958344	901.513947	437.452835	939.285339	977.845490	-16.086135	817.720764	889.903503	285.419556	798.090149	902.375305	25.813370	644.013428	932.211487	217.978302	636.752991	933.823059	134.492126	640.383209	933.017273	176.235214	671.978271	1152.958130	171.032166	912.405212	1156.899170	153.763885	787.771729	626.771973	366.770813	873.585327	467.585022	286.654846	858.522461	265.604919	335.477417	910.684509	75.042450	275.218964	875.863220	57.430042	220.938858	1045.295898	44.202358	258.613831	733.644714	663.127930	-51.374363	690.061829	471.564423	21.931892	611.962280	280.045929	-22.049767	619.587524	69.370712	52.324902	568.945862	58.705307	88.810135	739.108704	48.080070	110.778564
358	3.57000000	781.279358	1391.975220	341.047455	768.506836	1378.339722	-12.570603	739.498596	1440.943115	170.992722	883.819824	1308.210205	174.251465	665.038940	1119.731079	420.906464	796.768738	1086.787231	-126.858795	715.368591	900.425537	438.270523	945.980438	977.375671	-13.275781	824.147888	888.848572	285.561981	802.389526	902.701721	26.845407	649.331482	931.398254	220.335922	642.158508	933.072876	136.398682	645.744995	932.235565	178.367302	677.328186	1151.994629	173.600967	917.568420	1156.670532	154.902145	799.983887	627.322205	365.529938	877.826416	465.627808	285.308258	860.897705	263.851532	335.868164	908.378296	72.061440	274.477722	874.150818	53.935642	220.872162	1043.861572	44.358959	257.596466	736.191589	663.647217	-51.080486	692.836426	471.735077	21.628332	613.175659	280.796051	-21.994839	619.722656	69.564545	51.840721	568.959473	59.297592	88.377487	739.023743	48.238724	110.465446
359	3.58000000	786.585449	1391.319824	343.222565	772.890930	1377.828491	-10.424809	744.282043	1440.514160	173.443588	889.108337	1308.188599	176.110641	669.926880	1118.848389	422.498840	803.959473	1086.319214	-124.585854	719.953918	899.448853	439.128281	952.893402	976.559875	-10.295493	830.408264	887.854431	285.358246	806.118652	902.316467	26.772236	655.877869	930.902588	222.443924	646.993958	932.877136	138.472855	651.435913	931.889862	180.458389	683.018494	1151.546021	176.618271	922.967712	1156.383545	156.172607	811.730530	627.386353	364.069305	881.020203	464.042389	284.479248	865.452576	262.868774	336.804962	911.385803	71.179810	274.697723	876.202454	54.244099	220.817245	1045.529419	44.047028	258.067444	738.591614	663.946533	-51.113289	695.614563	471.864655	21.503296	614.037781	281.494141	-21.910585	619.994019	69.849113	51.363194	569.130493	59.788361	87.825554	738.848999	48.473988	110.084831
360	3.59000000	791.865234	1390.879028	345.433289	777.504700	1377.763062	-8.275244	749.432556	1440.543579	175.605682	894.321472	1308.154419	178.115067	675.156433	1118.299561	424.042938	811.048584	1086.153687	-122.100281	724.759186	898.676147	440.284485	959.258545	975.872681	-7.329454	836.328674	886.961060	285.055328	809.458191	902.283386	26.623751	661.645020	930.671875	225.102692	651.621948	932.567200	141.361176	656.633484	931.619537	183.231934	688.728699	1151.131592	179.398193	928.460327	1156.422119	157.429230	822.011841	628.774292	363.948975	883.755615	463.719604	284.879730	871.252319	263.166046	337.391388	915.228516	72.052979	275.563446	877.645691	55.247349	220.891510	1046.622192	43.835403	258.330017	740.952454	664.517090	-50.402905	698.130188	472.001953	22.256174	614.907837	282.385193	-21.606783	620.252747	70.440750	51.004654	569.394287	61.000900	87.350090	738.751465	48.727669	109.793755
